<?xml version="1.0" standalone="no"?>
<!DOCTYPE svg PUBLIC "-//W3C//DTD SVG 20010904//EN"
 "http://www.w3.org/TR/2001/REC-SVG-20010904/DTD/svg10.dtd">
<svg version="1.0" xmlns="http://www.w3.org/2000/svg"
 width="260.000000pt" height="260.000000pt" viewBox="0 0 260.000000 260.000000"
 preserveAspectRatio="xMidYMid meet">
<metadata>
Created by potrace 1.14, written by Peter Selinger 2001-2017
</metadata>
<g transform="translate(0.000000,260.000000) scale(0.100000,-0.100000)"
fill="#000000" stroke="none">
<path d="M2139 2546 c-2 -2 -35 -7 -74 -11 -133 -12 -260 -92 -380 -240 -22
-27 -48 -57 -57 -67 -10 -10 -18 -21 -18 -25 0 -5 -21 -30 -46 -58 -25 -27
-74 -81 -107 -120 -34 -38 -78 -87 -98 -110 -20 -22 -75 -89 -124 -150 -176
-221 -210 -260 -348 -397 -126 -125 -210 -198 -402 -348 -111 -87 -259 -237
-309 -313 -19 -28 -50 -88 -67 -132 -28 -68 -33 -93 -33 -165 -1 -107 6 -131
51 -181 76 -84 196 -150 318 -175 85 -18 246 -14 300 6 14 5 35 10 46 10 24 0
131 49 182 84 21 14 40 26 42 26 14 0 200 140 198 149 -2 6 3 8 10 5 8 -3 29
9 48 25 19 17 40 31 47 31 6 0 12 4 12 8 0 5 30 30 68 58 74 54 133 111 232
224 36 40 72 81 80 89 8 9 38 43 65 76 28 33 56 66 63 74 15 16 272 378 360
507 62 90 73 112 50 98 -7 -4 -8 -3 -4 5 4 6 11 9 16 6 9 -6 75 90 91 133 5
13 18 36 27 51 34 49 83 177 87 226 3 28 10 62 16 78 21 50 6 175 -30 251 -21
43 -36 64 -44 60 -7 -4 -9 -4 -5 1 19 20 -131 161 -159 151 -8 -3 -12 -2 -9 3
3 5 -12 20 -34 35 -38 25 -52 30 -61 22z m-39 -68 c42 -13 55 -38 20 -38 -11
0 -20 -4 -20 -9 0 -4 -27 -13 -60 -18 -50 -8 -63 -7 -73 5 -10 12 -8 17 7 26
11 6 26 19 35 29 18 20 38 21 91 5z m92 -92 c15 -4 34 -18 42 -30 18 -29 34
-142 17 -132 -6 4 -11 13 -11 20 0 24 -91 107 -144 130 l-51 23 60 -2 c33 -1
72 -5 87 -9z m-97 -26 c84 -41 155 -135 155 -205 0 -48 -19 -41 -35 11 -29 97
-90 152 -194 174 -39 8 -61 18 -61 26 0 22 86 17 135 -6z m-17 -56 c64 -28 96
-64 118 -129 9 -27 23 -57 31 -67 13 -14 12 -21 -6 -60 -14 -31 -20 -37 -21
-21 0 22 -53 83 -71 83 -6 0 -8 4 -5 8 3 5 -24 9 -59 8 l-65 -1 0 30 c0 44
-56 115 -103 131 -15 5 -13 9 15 29 40 28 86 25 166 -11z m-153 -55 c76 -67
80 -126 12 -184 -29 -25 -50 -35 -74 -35 -131 0 -173 162 -60 230 46 28 80 25
122 -11z m-219 -154 c1 -38 45 -95 73 -95 9 0 0 13 -22 34 -23 21 -37 43 -37
57 0 22 2 21 20 -9 12 -19 38 -41 61 -51 l40 -18 -24 -16 c-31 -20 -54 -74
-39 -89 8 -8 22 -8 50 0 43 13 77 42 49 42 -8 0 -20 -7 -27 -15 -16 -20 -59
-20 -56 0 3 21 37 55 49 48 6 -3 7 -1 3 5 -4 7 4 16 21 23 15 6 35 15 43 19
12 6 15 -1 15 -34 0 -26 8 -52 22 -72 12 -17 19 -34 15 -38 -4 -4 -2 -6 3 -5
6 2 27 -3 47 -11 26 -10 34 -17 25 -23 -7 -5 -4 -6 11 -2 27 8 30 -11 2 -20
-23 -7 -54 7 -92 43 -15 14 -31 23 -34 19 -10 -10 68 -76 98 -82 17 -4 25 -11
22 -20 -3 -8 -12 -11 -20 -8 -12 4 -13 0 -3 -23 l10 -29 -30 29 c-17 16 -28
33 -25 38 3 5 2 8 -3 6 -16 -4 -102 46 -96 55 3 6 1 7 -5 3 -34 -21 -135 45
-116 76 4 6 3 8 -4 5 -5 -4 -22 13 -36 37 -14 25 -36 48 -47 51 -15 5 -18 10
-10 18 8 8 19 3 39 -16 37 -36 49 -34 22 3 -15 22 -33 32 -61 36 l-40 7 43 28
c24 16 43 29 43 29 0 0 0 -16 1 -35z m409 1 c61 -28 80 -59 72 -118 -8 -59
-60 -108 -115 -108 -74 0 -137 65 -134 138 2 54 57 109 112 111 8 0 38 -10 65
-23z m-467 -43 c-10 -2 -18 -9 -18 -14 0 -5 -9 -9 -19 -9 -11 0 -29 -12 -41
-27 -18 -24 -21 -38 -18 -88 5 -77 25 -117 96 -191 64 -67 128 -112 171 -120
l29 -6 -36 -32 c-35 -31 -149 -147 -161 -163 -11 -17 -66 -50 -161 -98 -130
-66 -221 -158 -281 -282 -35 -74 -89 -124 -179 -166 -36 -17 -70 -38 -76 -46
-26 -35 -63 -69 -144 -131 -47 -35 -112 -85 -145 -110 -132 -101 -151 -111
-211 -111 -57 0 -94 19 -94 48 0 68 153 235 308 338 35 23 47 37 46 54 -1 21
1 22 11 8 11 -15 15 -14 41 13 16 16 33 30 37 30 12 0 54 49 94 110 35 53 95
115 220 227 129 117 160 150 182 195 12 26 36 61 51 78 33 35 99 167 131 262
27 80 35 88 43 45 7 -37 59 -117 77 -117 5 0 -1 15 -15 33 -30 40 -56 108 -56
149 0 30 49 112 72 121 7 3 24 5 38 5 16 0 19 -2 8 -5z m42 -69 c0 -8 -5 -12
-10 -9 -6 4 -8 11 -5 16 9 14 15 11 15 -7z m25 -62 c-22 -5 -29 3 -21 25 7 17
8 17 22 -2 13 -18 13 -20 -1 -23z m42 -38 c5 -15 -28 -27 -40 -15 -5 5 -6 14
-2 21 8 13 37 9 42 -6z m-350 -30 c-3 -3 -12 -4 -19 -1 -8 3 -5 6 6 6 11 1 17
-2 13 -5z m375 -9 c0 -5 -5 -11 -11 -13 -6 -2 -11 4 -11 13 0 9 5 15 11 13 6
-2 11 -8 11 -13z m-477 -33 l-28 -27 24 31 c13 17 26 30 28 27 3 -2 -8 -16
-24 -31z m295 12 c0 -8 -4 -12 -10 -9 -5 3 -10 13 -10 21 0 8 5 12 10 9 6 -3
10 -13 10 -21z m238 4 c-6 -18 -28 -21 -28 -4 0 9 7 16 16 16 9 0 14 -5 12
-12z m46 -4 c18 -7 12 -24 -10 -24 -8 0 -14 7 -14 15 0 17 2 18 24 9z m-254
-22 c0 -13 -12 -22 -22 -16 -10 6 -1 24 13 24 5 0 9 -4 9 -8z m310 -12 c0 -5
-2 -10 -4 -10 -3 0 -8 5 -11 10 -3 6 -1 10 4 10 6 0 11 -4 11 -10z m-277 -16
c3 -3 3 -12 0 -20 -4 -11 -9 -12 -19 -3 -8 6 -11 15 -8 20 6 10 18 12 27 3z
m47 -54 c0 -22 -7 -25 -29 -11 -16 10 -6 31 15 31 8 0 14 -9 14 -20z m40 -40
c0 -11 -4 -20 -9 -20 -13 0 -32 26 -24 33 13 14 33 6 33 -13z m50 -30 c0 -18
-3 -19 -20 -10 -22 12 -18 30 6 30 8 0 14 -9 14 -20z m-630 -4 c0 -2 -8 -10
-17 -17 -16 -13 -17 -12 -4 4 13 16 21 21 21 13z m670 -16 c0 -5 -7 -10 -16
-10 -8 0 -12 5 -9 10 3 6 10 10 16 10 5 0 9 -4 9 -10z m160 -14 c0 -2 -8 -10
-17 -17 -16 -13 -17 -12 -4 4 13 16 21 21 21 13z m-283 -622 c-3 -3 -12 -4
-19 -1 -8 3 -5 6 6 6 11 1 17 -2 13 -5z m-1027 -68 c0 -2 -11 -6 -25 -8 -13
-3 -22 -1 -19 3 5 9 44 13 44 5z m-290 -31 c0 -7 -30 -13 -34 -7 -3 4 4 9 15
9 10 1 19 0 19 -2z m-33 -47 c-3 -8 -6 -5 -6 6 -1 11 2 17 5 13 3 -3 4 -12 1
-19z m14 -35 c13 -16 12 -17 -3 -4 -10 7 -18 15 -18 17 0 8 8 3 21 -13z"/>
<path d="M1830 2180 c0 -5 5 -10 10 -10 6 0 10 5 10 10 0 6 -4 10 -10 10 -5 0
-10 -4 -10 -10z"/>
<path d="M2060 1995 c0 -8 4 -15 9 -15 5 0 11 7 15 15 3 9 0 15 -9 15 -8 0
-15 -7 -15 -15z"/>
</g>
</svg>
